<svg xmlns="http://www.w3.org/2000/svg" width="128" height="128" viewBox="0 0 128 128" fill="none">
  <rect x="0" y="0" width="128" height="128" fill="black" fill-opacity="0.03"/>
  <path d="M65.025 70.4C77.7532 70.4006 89.5174 74.5293 99.0508 81.5208C101.556 83.3583 102.809 84.2771 103.014 86.0035C103.219 87.73 102.212 88.9205 100.198 91.3015C91.0258 102.147 78.6472 108.799 65.025 108.8C51.4017 108.8 39.0195 102.148 29.8459 91.3015C27.8321 88.9206 26.8253 87.7301 27.03 86.0036C27.2347 84.277 28.4875 83.3583 30.993 81.5209C40.528 74.5287 52.2955 70.4 65.025 70.4Z" fill="black" fill-opacity="0.09"/>
  <path d="M64 19.2C74.6042 19.2 83.2 27.7961 83.2 38.4C83.2 49.0038 74.6042 57.6 64 57.6C53.3958 57.6 44.8 49.0038 44.8 38.4C44.8 27.7961 53.3958 19.2 64 19.2Z" fill="black" fill-opacity="0.09"/>
</svg>