<svg width="236" height="56" viewBox="0 0 236 56" fill="none" xmlns="http://www.w3.org/2000/svg">
<path fill-rule="evenodd" clip-rule="evenodd" d="M31.2427 36.814C31.9483 36.5594 32.7124 36.5112 33.4453 36.6756C34.2093 36.847 34.7924 37.2724 35.2638 37.698C35.7224 38.1121 36.2306 38.6743 36.7958 39.2966L43.5627 46.7464C44.1995 47.4476 44.1474 48.5327 43.4463 49.1695C42.7451 49.8064 41.6601 49.7542 41.0232 49.0531L34.2562 41.6027C33.6432 40.9277 33.2673 40.5171 32.9648 40.244C32.8601 40.1495 32.7856 40.0919 32.7365 40.0577C32.7066 40.0369 32.6865 40.0248 32.6757 40.0189C32.589 40.0028 32.4993 40.0093 32.4158 40.0377C32.406 40.045 32.3886 40.0595 32.3621 40.0843C32.3185 40.125 32.2527 40.1926 32.1623 40.3015C31.9021 40.6152 31.5891 41.076 31.0791 41.8322L29.8633 43.6339L31.8635 46.599C34.0614 49.8583 31.7263 54.2497 27.7952 54.2499C23.8639 54.2499 21.5284 49.8583 23.7263 46.599L25.7258 43.6339L24.5107 41.8322C24.0007 41.076 23.6877 40.6153 23.4275 40.3015C23.337 40.1925 23.2713 40.125 23.2277 40.0843C23.2008 40.0592 23.183 40.0448 23.1733 40.0377C23.0899 40.0094 23.0006 40.0028 22.914 40.0189C22.9032 40.0248 22.883 40.037 22.8532 40.0577C22.8042 40.0919 22.7296 40.1495 22.6249 40.244C22.3225 40.5171 21.9465 40.9277 21.3335 41.6027L14.5666 49.0531L14.5659 49.0544L14.5381 49.0842L14.5368 49.0855C13.8963 49.7557 12.8344 49.7963 12.1441 49.1695C11.443 48.5326 11.3909 47.4476 12.0277 46.7464L18.794 39.2966C19.3592 38.6743 19.8673 38.1121 20.326 37.698C20.7974 37.2724 21.3805 36.847 22.1445 36.6756L22.1458 36.6749L22.2143 36.6607L22.2156 36.6601C22.9505 36.5094 23.7139 36.5713 24.4156 36.8392C25.1469 37.1184 25.6625 37.6231 26.0679 38.1119C26.4624 38.5876 26.8847 39.217 27.3548 39.9142L27.7952 40.566L28.235 39.9142C28.7051 39.2171 29.1273 38.5876 29.5219 38.1119C29.9272 37.6231 30.4429 37.1185 31.1741 36.8392L31.1754 36.8385L31.2414 36.8146L31.2427 36.814ZM26.5704 48.517C25.909 49.4979 26.6121 50.8192 27.7952 50.8192C28.9781 50.819 29.6808 49.4978 29.0194 48.517L27.7952 46.7011L26.5704 48.517Z" fill="#E5E2DC"/>
<path fill-rule="evenodd" clip-rule="evenodd" d="M6.62593 12.3492C7.23335 11.6805 8.24788 11.6021 8.94883 12.1487L9.01544 12.2037L9.01673 12.2043L9.04713 12.2315L9.04842 12.2328L16.4989 18.9991C17.1213 19.5644 17.6834 20.073 18.0975 20.5317C18.4839 20.9598 18.8702 21.4798 19.0662 22.1439L19.1031 22.2784V22.2803L19.1193 22.3482L19.1199 22.3508L19.1348 22.4194V22.4207C19.2806 23.1319 19.2273 23.8699 18.9809 24.5528L18.9802 24.5534L18.9563 24.6194L18.9557 24.6207C18.6764 25.352 18.1717 25.8682 17.683 26.2736C17.2074 26.6681 16.5782 27.0899 15.8813 27.5599L15.2288 28.0003L15.8813 28.44C16.5783 28.9101 17.2073 29.3324 17.683 29.7269C18.1269 30.0951 18.5842 30.5541 18.8735 31.1833L18.9291 31.3113L18.9298 31.3133L18.955 31.3779L18.9563 31.3805L18.9802 31.4465L18.9809 31.4478C19.2355 32.1534 19.2843 32.9175 19.1199 33.6504C18.9485 34.4143 18.5231 34.9975 18.0975 35.4689C17.6834 35.9275 17.1212 36.4356 16.4989 37.0009L9.04842 43.7678L9.04713 43.7684L9.01673 43.7956L9.01544 43.7969C8.31361 44.4025 7.25292 44.3413 6.62593 43.6514C5.98902 42.9501 6.04111 41.8652 6.74234 41.2282L14.1922 34.4613C14.8671 33.8483 15.2777 33.4724 15.5508 33.1699C15.6455 33.065 15.7037 32.9906 15.7377 32.9416C15.7585 32.9118 15.7694 32.8916 15.7753 32.8808C15.7913 32.7942 15.7854 32.7049 15.7571 32.6215C15.7499 32.6118 15.7356 32.594 15.7106 32.5672C15.6699 32.5236 15.6023 32.4578 15.4933 32.3674C15.1796 32.1072 14.7188 31.7941 13.9626 31.2842L12.1609 30.0684L9.19651 32.0686C5.93718 34.2668 1.54507 31.9315 1.54492 28.0003C1.54492 24.0689 5.93713 21.7338 9.19651 23.932L12.1609 25.9309L13.9626 24.7158C14.7188 24.2058 15.1796 23.8928 15.4933 23.6326C15.6021 23.5423 15.6699 23.477 15.7106 23.4334C15.7357 23.4065 15.75 23.3881 15.7571 23.3784C15.7853 23.295 15.7914 23.2057 15.7753 23.1191C15.7694 23.1083 15.7582 23.0885 15.7377 23.059C15.7036 23.0099 15.6455 22.9355 15.5508 22.8307C15.2777 22.5282 14.8673 22.1518 14.1922 21.5386L6.74234 14.7717L6.7404 14.771L6.71065 14.7432L6.70936 14.7419C6.03914 14.1013 5.999 13.0394 6.62593 12.3492ZM7.27779 26.7755C6.29693 26.1142 4.97559 26.8173 4.97559 28.0003C4.97574 29.1832 6.29697 29.8858 7.27779 29.2245L9.09369 28.0003L7.27779 26.7755Z" fill="#E5E2DC"/>
<path fill-rule="evenodd" clip-rule="evenodd" d="M46.5743 12.2037C47.2762 11.5979 48.3368 11.659 48.9638 12.3492C49.6007 13.0504 49.5487 14.1348 48.8474 14.7717L41.3976 21.5386C40.7225 22.1518 40.312 22.5282 40.0389 22.8307C39.9443 22.9355 39.8861 23.0099 39.852 23.059C39.8314 23.0886 39.8197 23.1083 39.8139 23.1191C39.7977 23.2057 39.8044 23.2949 39.8326 23.3784C39.8398 23.388 39.854 23.4064 39.8792 23.4334C39.9199 23.477 39.9877 23.5423 40.0965 23.6326C40.4102 23.8928 40.871 24.2058 41.6272 24.7158L43.4288 25.9309L46.3939 23.932C49.6533 21.7338 54.0448 24.0689 54.0448 28.0003C54.0447 31.9314 49.6532 34.2665 46.3939 32.0686L43.4288 30.0684L41.6272 31.2842C40.871 31.7942 40.4102 32.1072 40.0965 32.3674C39.9875 32.4578 39.9199 32.5236 39.8792 32.5672C39.8545 32.5936 39.8399 32.6111 39.8326 32.6209C39.8043 32.7044 39.7977 32.794 39.8139 32.8808C39.8197 32.8916 39.8312 32.9117 39.852 32.9416C39.8861 32.9906 39.9442 33.065 40.0389 33.1699C40.312 33.4724 40.7227 33.8483 41.3976 34.4613L48.8474 41.2282C49.5487 41.8652 49.6007 42.9501 48.9638 43.6514C48.3269 44.3522 47.2425 44.4045 46.5413 43.7678L39.0915 37.0009C38.4691 36.4355 37.9064 35.9276 37.4923 35.4689C37.0667 34.9975 36.6419 34.4143 36.4705 33.6504C36.3008 32.8939 36.3576 32.1042 36.6341 31.3799L36.6348 31.3779L36.66 31.3133L36.6606 31.3113C36.9446 30.6157 37.4333 30.1196 37.9068 29.7269C38.3824 29.3324 39.0114 28.9101 39.7085 28.44L40.361 27.9996L39.7085 27.5599C39.0116 27.0899 38.3824 26.6681 37.9068 26.2736C37.418 25.8682 36.9134 25.3521 36.6341 24.6207C36.3576 23.8963 36.3008 23.1061 36.4705 22.3495V22.3482L36.4867 22.2803V22.2784C36.6678 21.5494 37.0801 20.9883 37.4923 20.5317C37.9064 20.073 38.4691 19.5644 39.0915 18.9991L46.5413 12.2328L46.5426 12.2315L46.573 12.2043L46.5743 12.2037ZM50.6142 28.0003C50.6142 26.8172 49.2928 26.1142 48.312 26.7755L46.4961 28.0003L48.312 29.2245C49.2928 29.8858 50.614 29.1832 50.6142 28.0003Z" fill="#E5E2DC"/>
<path fill-rule="evenodd" clip-rule="evenodd" d="M99.1389 20.4295C101.023 20.4296 102.727 20.8564 104.248 21.7126C105.767 22.5683 106.957 23.7634 107.813 25.2945L107.894 25.4375C108.711 26.9218 109.118 28.5919 109.118 30.4422C109.118 32.352 108.684 34.0762 107.814 35.6092C106.957 37.1274 105.767 38.3154 104.248 39.1711C102.727 40.0273 101.023 40.4541 99.1389 40.4542C97.2546 40.4542 95.5498 40.0274 94.0294 39.1711C92.5102 38.3155 91.3142 37.1275 90.4442 35.6098L90.4429 35.6079C89.5862 34.0752 89.1593 32.3514 89.1593 30.4422C89.1593 28.5329 89.5858 26.8155 90.4429 25.2958L90.4436 25.2952C91.3134 23.7638 92.5096 22.5685 94.0294 21.7126C95.5498 20.8563 97.2547 20.4295 99.1389 20.4295ZM99.1389 23.8376C97.8587 23.8376 96.7389 24.1204 95.7736 24.6808L95.7723 24.6815C94.8203 25.2288 94.0839 26.0036 93.5606 27.0102L93.56 27.0109C93.0367 28.0043 92.7723 29.1467 92.7723 30.4422C92.7723 31.7375 93.0368 32.8867 93.5606 33.8942C94.0839 34.8872 94.8209 35.6624 95.7742 36.2235C96.7393 36.7703 97.8589 37.0468 99.1389 37.0468C100.42 37.0467 101.532 36.7696 102.484 36.2229C103.45 35.6615 104.194 34.8866 104.717 33.8942C105.241 32.8867 105.506 31.7375 105.506 30.4422C105.506 29.1467 105.241 28.0043 104.718 27.0109L104.717 27.0102C104.194 26.0043 103.451 25.2297 102.486 24.6821L102.483 24.6802C101.532 24.1204 100.419 23.8376 99.1389 23.8376Z" fill="#E5E2DC"/>
<path d="M117.756 20.8757C118.233 20.8757 118.626 20.9858 118.873 21.2592C119.134 21.5203 119.238 21.9409 119.238 22.4575V33.34C119.238 34.5121 119.508 35.4151 120.026 36.0709C120.533 36.7138 121.285 37.0467 122.319 37.0468C123.426 37.0468 124.455 36.7285 125.409 36.0884L125.411 36.0877C126.379 35.4468 127.154 34.5626 127.735 33.4292C128.313 32.2989 128.605 31.0341 128.605 29.6312V24.04H125.929C125.446 24.0399 125.05 23.9343 124.791 23.6759L124.786 23.6714L124.781 23.6662C124.543 23.3937 124.447 22.9735 124.447 22.4575C124.447 21.9435 124.542 21.5254 124.786 21.2644C125.044 20.9893 125.443 20.8758 125.929 20.8757H130.573C131.051 20.8758 131.444 20.9857 131.691 21.2592C131.952 21.5203 132.055 21.941 132.055 22.4575V36.8444H133.514C133.991 36.8444 134.384 36.9544 134.631 37.2278C134.892 37.4889 134.996 37.9095 134.996 38.4262C134.996 38.9444 134.892 39.3666 134.636 39.6393C134.389 39.9036 133.994 40.0086 133.514 40.0086H130.289C129.807 40.0086 129.41 39.9029 129.151 39.6445L129.146 39.64C128.903 39.379 128.807 38.9603 128.807 38.4462V36.6529C127.985 37.7887 127.041 38.683 125.974 39.3302C124.753 40.0788 123.432 40.4541 122.015 40.4542C120.755 40.4541 119.65 40.184 118.708 39.6361L118.706 39.6348C117.764 39.0729 117.041 38.2721 116.538 37.2388C116.035 36.2063 115.787 35.006 115.787 33.6439V24.04H114.328C113.846 24.0399 113.449 23.9343 113.191 23.6759L113.186 23.6714L113.181 23.6662C112.942 23.3937 112.847 22.9735 112.847 22.4575C112.847 21.9435 112.942 21.5254 113.186 21.2644C113.444 20.9893 113.843 20.8758 114.328 20.8757H117.756Z" fill="#E5E2DC"/>
<path d="M144.546 15.5458C145.03 15.5458 145.427 15.6586 145.673 15.9396C145.927 16.2013 146.028 16.6178 146.028 17.1282C146.028 17.6465 145.924 18.0686 145.669 18.3414L145.621 18.3892C145.372 18.6185 144.997 18.71 144.546 18.71H141.816L143.701 33.7933L147.231 22.7602C147.338 22.4051 147.533 22.1251 147.821 21.937C148.108 21.7503 148.468 21.666 148.886 21.666C149.335 21.666 149.708 21.7352 149.983 21.8969C150.271 22.0578 150.465 22.3017 150.561 22.6192L154.076 33.7926L156.036 18.71H153.753C153.271 18.71 152.874 18.605 152.615 18.3466L152.61 18.342L152.606 18.3369C152.368 18.0644 152.271 17.6441 152.271 17.1282C152.271 16.6141 152.367 16.1954 152.611 15.9344C152.869 15.6593 153.268 15.5458 153.753 15.5458H160.324C160.808 15.5458 161.205 15.6586 161.451 15.9396C161.705 16.2013 161.806 16.6177 161.806 17.1282C161.806 17.6465 161.702 18.0686 161.446 18.3414L161.399 18.3892C161.15 18.6185 160.774 18.71 160.324 18.71H159.407L156.633 38.9603C156.561 39.4784 156.367 39.8823 156.016 40.1159C155.695 40.352 155.241 40.4542 154.686 40.4542C154.106 40.4541 153.615 40.3399 153.228 40.0933C152.837 39.8448 152.571 39.473 152.423 38.9946L148.865 27.8283L145.268 38.9952C145.113 39.4745 144.838 39.846 144.441 40.094C144.048 40.3397 143.55 40.4542 142.964 40.4542C142.415 40.4542 141.961 40.3491 141.629 40.1121L141.625 40.1095C141.294 39.8618 141.117 39.4629 141.058 38.959L138.384 18.71H137.57C137.087 18.71 136.69 18.605 136.431 18.3466L136.427 18.342L136.422 18.3369C136.184 18.0644 136.088 17.6441 136.088 17.1282C136.088 16.6141 136.183 16.1961 136.427 15.9351C136.685 15.6599 137.084 15.5458 137.57 15.5458H144.546Z" fill="#E5E2DC"/>
<path fill-rule="evenodd" clip-rule="evenodd" d="M173.932 20.4295C176.5 20.4295 178.464 21.0026 179.787 22.184C181.114 23.3686 181.761 25.1139 181.761 27.382V35.4475C181.762 35.9576 181.869 36.3023 182.049 36.5171C182.222 36.725 182.492 36.8443 182.896 36.8444H183.606C184.084 36.8444 184.477 36.9543 184.723 37.2278C184.985 37.4889 185.087 37.9095 185.087 38.4262C185.087 38.9445 184.983 39.3666 184.728 39.6393C184.481 39.9035 184.086 40.0086 183.606 40.0086H182.308C181.394 40.0086 180.596 39.7829 179.922 39.3244L179.918 39.3218C179.332 38.9019 178.929 38.3163 178.705 37.5771C177.649 38.461 176.509 39.1525 175.286 39.649C173.976 40.1862 172.585 40.4542 171.113 40.4542C169.725 40.4542 168.486 40.2203 167.402 39.748L167.399 39.7473C166.325 39.2598 165.476 38.5529 164.859 37.6275C164.239 36.6976 163.932 35.5962 163.932 34.3326C163.932 32.1429 164.721 30.4988 166.315 29.4411C167.886 28.386 169.903 27.8671 172.35 27.8671C174.423 27.8671 176.411 28.1848 178.311 28.8196V27.382C178.311 26.1094 177.951 25.2191 177.271 24.6627L177.268 24.6601C176.593 24.0858 175.47 23.7762 173.851 23.7761C172.856 23.7761 171.818 23.9153 170.738 24.1952C169.657 24.4753 168.629 24.8623 167.656 25.3553C167.408 25.4858 167.167 25.5596 166.936 25.5597C166.368 25.5596 165.943 25.141 165.634 24.4681C165.48 24.1325 165.393 23.831 165.393 23.5724C165.393 23.2978 165.466 23.0475 165.616 22.8287C165.746 22.6389 165.928 22.4804 166.154 22.3502L166.254 22.2965C167.404 21.6946 168.636 21.2366 169.948 20.9223L170.197 20.8628C171.442 20.5744 172.687 20.4295 173.932 20.4295ZM172.37 31.1322C170.836 31.1322 169.646 31.3994 168.784 31.914L168.783 31.9147C167.962 32.3998 167.545 33.1719 167.545 34.2718C167.545 35.204 167.861 35.9118 168.481 36.4214L168.605 36.5126C169.238 36.9559 170.107 37.1884 171.235 37.1884C173.838 37.1884 176.195 36.1221 178.311 33.9653V31.9903C177.445 31.7194 176.516 31.5129 175.526 31.3734H175.524C174.479 31.2129 173.428 31.1322 172.37 31.1322Z" fill="#E5E2DC"/>
<path fill-rule="evenodd" clip-rule="evenodd" d="M223.841 20.4295C225.828 20.4295 227.535 20.8338 228.951 21.6518C230.377 22.4543 231.473 23.577 232.235 25.0165L232.305 25.1503C233.021 26.5403 233.43 28.1328 233.536 29.9235L233.537 29.9293V29.9352C233.537 30.4124 233.433 30.805 233.172 31.052C232.925 31.299 232.532 31.396 232.055 31.396H217.589C217.712 33.2657 218.289 34.6651 219.296 35.6221L219.396 35.7127C220.45 36.6345 221.923 37.1075 223.841 37.1076C225.068 37.1076 226.282 36.9543 227.482 36.6478C228.684 36.3273 229.735 35.9082 230.635 35.3919L230.638 35.39L230.641 35.3887C230.89 35.2571 231.133 35.1824 231.366 35.1824C231.966 35.1825 232.403 35.6431 232.709 36.38L232.755 36.4919C232.854 36.7515 232.908 36.9985 232.909 37.2304C232.909 37.8672 232.548 38.3465 231.904 38.6687C230.845 39.2046 229.598 39.6356 228.166 39.9627C226.732 40.2903 225.29 40.4542 223.841 40.4542C221.774 40.4541 219.995 40.0577 218.512 39.2546C217.029 38.4513 215.898 37.2926 215.122 35.7838C214.347 34.2767 213.964 32.4938 213.964 30.4422C213.964 28.4804 214.383 26.736 215.227 25.2157C216.07 23.6971 217.239 22.5212 218.733 21.6919C220.227 20.8489 221.932 20.4296 223.841 20.4295ZM223.841 23.7761C222.215 23.7762 220.882 24.1921 219.83 25.01C218.85 25.7685 218.184 26.8115 217.835 28.1503H229.717C229.419 26.7553 228.801 25.7007 227.873 24.9686L227.87 24.9667C226.903 24.181 225.568 23.7761 223.841 23.7761Z" fill="#E5E2DC"/>
<path d="M71.0507 15.5458C71.5345 15.5458 71.9318 15.6585 72.1779 15.9396C72.4322 16.2013 72.5323 16.6178 72.5323 17.1282C72.5323 17.6465 72.4284 18.0686 72.1727 18.3414C71.9259 18.6056 71.5313 18.71 71.0507 18.71H69.5291L74.235 26.4043L78.9798 18.71H78.0272C77.5448 18.71 77.1477 18.605 76.889 18.3466L76.8839 18.342L76.88 18.3369C76.6414 18.0644 76.545 17.6441 76.545 17.1282C76.545 16.6141 76.6407 16.1954 76.8845 15.9344C77.1428 15.6593 77.5418 15.5458 78.0272 15.5458H84.1921C84.6758 15.5458 85.073 15.6585 85.3192 15.9396C85.5735 16.2013 85.6736 16.6177 85.6736 17.1282C85.6736 17.6465 85.5704 18.0686 85.3147 18.3414L85.2668 18.3892C85.0183 18.6185 84.6426 18.71 84.1921 18.71H82.9265L75.9597 29.8925V36.8444H80.3391C80.8229 36.8444 81.2201 36.9571 81.4663 37.2382C81.7204 37.4999 81.8206 37.9159 81.8207 38.4262C81.8207 38.9445 81.7174 39.3672 81.4617 39.64C81.2149 39.9042 80.8196 40.0086 80.3391 40.0086H68.1303C67.6479 40.0086 67.2508 39.903 66.9921 39.6445L66.987 39.64L66.9831 39.6348C66.7445 39.3623 66.6481 38.9421 66.6481 38.4262C66.6481 37.9122 66.7433 37.494 66.987 37.233C67.2452 36.9578 67.6448 36.8444 68.1303 36.8444H72.509V29.8918L65.583 18.71H64.2774C63.795 18.71 63.3979 18.605 63.1392 18.3466L63.134 18.342L63.1301 18.3369C62.8915 18.0644 62.7952 17.6441 62.7952 17.1282C62.7952 16.6141 62.8908 16.1954 63.1347 15.9344C63.3929 15.6593 63.792 15.5458 64.2774 15.5458H71.0507Z" fill="#E5E2DC"/>
<path d="M204.961 20.4295C205.984 20.4295 206.947 20.6757 207.846 21.1667L208.025 21.2683L208.027 21.2689C208.613 21.6202 208.937 22.0985 208.937 22.7007C208.937 22.9763 208.869 23.2854 208.742 23.6235C208.45 24.415 208.008 24.911 207.374 24.9111C207.136 24.9111 206.913 24.8476 206.708 24.7235L206.589 24.6601C205.991 24.3542 205.354 24.2017 204.677 24.2016C203.51 24.2017 202.327 24.6092 201.123 25.442L201.121 25.4433C199.919 26.2615 198.925 27.3581 198.142 28.7375C197.375 30.1126 196.992 31.5717 196.992 33.1169V36.8444H203.622C204.106 36.8444 204.503 36.9571 204.749 37.2382C205.003 37.4999 205.104 37.9158 205.104 38.4262C205.104 38.9444 205 39.3666 204.745 39.6393C204.498 39.9034 204.102 40.0086 203.622 40.0086H190.562C190.079 40.0086 189.683 39.9029 189.424 39.6445L189.419 39.64L189.414 39.6348C189.176 39.3623 189.08 38.9421 189.08 38.4262C189.08 37.9121 189.175 37.494 189.419 37.233C189.677 36.9578 190.076 36.8444 190.562 36.8444H193.542V24.04H191.17C190.688 24.04 190.291 23.9344 190.032 23.6759L190.027 23.6714L190.023 23.6662C189.784 23.3937 189.689 22.9735 189.689 22.4575C189.689 21.9435 189.784 21.5254 190.027 21.2644L190.131 21.1687C190.387 20.9625 190.745 20.8758 191.17 20.8757H195.307C195.785 20.8757 196.178 20.9856 196.425 21.2592C196.686 21.5203 196.789 21.9409 196.789 22.4575V25.7931C197.366 24.858 198.035 24.0213 198.795 23.284C199.729 22.3783 200.728 21.6754 201.792 21.1784C202.856 20.6811 203.913 20.4295 204.961 20.4295Z" fill="#E5E2DC"/>
<path fill-rule="evenodd" clip-rule="evenodd" d="M27.9782 1.75323C31.7982 1.88715 34.0273 6.19318 31.8635 9.40159L29.8633 12.366L31.0791 14.1683C31.589 14.9244 31.9021 15.3847 32.1623 15.6984C32.2527 15.8074 32.3185 15.8749 32.3621 15.9157C32.3889 15.9407 32.4067 15.955 32.4164 15.9622C32.4998 15.9905 32.5892 15.9964 32.6757 15.9803C32.6866 15.9744 32.7068 15.9635 32.7365 15.9428C32.7855 15.9087 32.86 15.8512 32.9648 15.7566C33.2673 15.4835 33.643 15.0724 34.2562 14.3972L41.0232 6.94742L41.0245 6.94612L41.0516 6.91637L41.0529 6.91443C41.6935 6.24418 42.756 6.20406 43.4463 6.83101C44.1472 7.46789 44.1993 8.55237 43.5627 9.2535L36.7958 16.704C36.2305 17.3263 35.7225 17.8885 35.2638 18.3026C34.7924 18.7282 34.2093 19.1536 33.4453 19.325C32.7124 19.4894 31.9483 19.4405 31.2427 19.1859H31.2414L31.1754 19.1614L31.1741 19.1607C30.4429 18.8814 29.9272 18.3768 29.5219 17.8881C29.1274 17.4124 28.705 16.7834 28.235 16.0864L27.7946 15.4339L27.3548 16.0864C26.8847 16.7834 26.4624 17.4124 26.0679 17.8881C25.6752 18.3615 25.1792 18.8503 24.4835 19.1342L24.4822 19.1349L24.4169 19.1607H24.4156C23.6912 19.4373 22.9011 19.4947 22.1445 19.325C21.3805 19.1536 20.7974 18.7282 20.326 18.3026C19.8673 17.8885 19.3592 17.3263 18.794 16.704L12.0277 9.2535L12.0264 9.25221L11.9992 9.22181L11.998 9.22052C11.3924 8.51861 11.454 7.45793 12.1441 6.83101C12.8128 6.22373 13.8301 6.24252 14.4754 6.85365L14.5368 6.91443L14.5381 6.91637L14.5659 6.94612L14.5666 6.94742L21.3335 14.3972C21.9468 15.0724 22.3224 15.4835 22.6249 15.7566C22.7297 15.8511 22.8042 15.9087 22.8532 15.9428C22.8829 15.9635 22.9032 15.9744 22.914 15.9803C23.0005 15.9964 23.0894 15.9903 23.1727 15.9622C23.1823 15.9551 23.2008 15.9414 23.2277 15.9163C23.2713 15.8756 23.337 15.8074 23.4275 15.6984C23.6877 15.3847 24.0008 14.9244 24.5107 14.1683L25.7258 12.366L23.7263 9.40159C21.528 6.1422 23.8638 1.75 27.7952 1.75L27.9782 1.75323ZM27.7952 5.18067C26.6121 5.18067 25.9089 6.50263 26.5704 7.48352L27.7952 9.29877L29.0194 7.48352C29.6808 6.50271 28.9781 5.18088 27.7952 5.18067Z" fill="#E5E2DC"/>
</svg>
