<svg width="24" height="24" viewBox="0 0 24 24" fill="none" xmlns="http://www.w3.org/2000/svg">
<path fill-rule="evenodd" clip-rule="evenodd" d="M13.576 16.0292C13.8986 15.9128 14.248 15.8907 14.583 15.9659C14.9323 16.0442 15.1987 16.2386 15.4142 16.4332C15.6239 16.6225 15.8562 16.8795 16.1146 17.164L19.208 20.5698C19.4991 20.8904 19.4753 21.3862 19.1548 21.6774C18.8342 21.9685 18.3383 21.9447 18.0471 21.6241L14.9538 18.2185C14.6734 17.9098 14.5016 17.722 14.3633 17.5972C14.3154 17.5539 14.2813 17.5275 14.2589 17.512C14.2452 17.5024 14.2361 17.4971 14.2312 17.4945C14.1915 17.4871 14.1507 17.4899 14.1125 17.5029C14.108 17.5062 14.0999 17.5128 14.0878 17.5241C14.0678 17.5428 14.0378 17.5737 13.9965 17.6236C13.8775 17.767 13.7344 17.9775 13.5013 18.3232L12.9457 19.1469L13.8599 20.5022C14.8647 21.9923 13.7972 24 12 24C10.2028 24 9.13525 21.9923 10.1402 20.5022L11.0542 19.1469L10.4987 18.3232C10.2656 17.9775 10.1225 17.767 10.0035 17.6236C9.96217 17.5737 9.93219 17.5427 9.91225 17.5241C9.89991 17.5126 9.89166 17.5062 9.88726 17.5029C9.84908 17.49 9.80828 17.4871 9.76865 17.4945C9.7637 17.4972 9.75469 17.5025 9.74107 17.512C9.71866 17.5276 9.68463 17.5539 9.6367 17.5972C9.4984 17.722 9.32656 17.9098 9.04623 18.2185L5.95287 21.6241L5.95235 21.6248L5.93966 21.6384L5.93914 21.639C5.6463 21.9455 5.16078 21.964 4.84522 21.6774C4.5247 21.3862 4.50089 20.8904 4.792 20.5698L7.88536 17.164C8.14379 16.8795 8.37607 16.6225 8.58577 16.4332C8.80126 16.2386 9.06772 16.0442 9.41696 15.9659L9.41747 15.9657L9.44881 15.959L9.44946 15.9589C9.78539 15.89 10.1343 15.9182 10.4551 16.0407C10.7894 16.1684 11.0253 16.399 11.2106 16.6225C11.391 16.84 11.584 17.1276 11.7989 17.4463L12 17.7445L12.2011 17.4463C12.416 17.1276 12.609 16.84 12.7894 16.6225C12.9747 16.399 13.2106 16.1684 13.5449 16.0407L13.5455 16.0406L13.5755 16.0294L13.576 16.0292ZM11.4402 21.3791C11.1378 21.8276 11.4592 22.4318 12 22.4318C12.5409 22.4318 12.8622 21.8276 12.5598 21.3791L12 20.549L11.4402 21.3791Z" fill="#55644A"/>
<path fill-rule="evenodd" clip-rule="evenodd" d="M20.5849 4.77866C20.9057 4.50172 21.3907 4.52969 21.6774 4.84522C21.9685 5.16578 21.9447 5.66171 21.6241 5.95287L18.2185 9.04623C17.9098 9.32657 17.722 9.4984 17.5972 9.6367C17.5539 9.68463 17.5276 9.71866 17.512 9.74107C17.5025 9.75469 17.4972 9.7637 17.4945 9.76865C17.4871 9.80828 17.49 9.84908 17.5029 9.88726C17.5062 9.89166 17.5126 9.89991 17.5241 9.91225C17.5427 9.93219 17.5737 9.96217 17.6236 10.0035C17.767 10.1225 17.9775 10.2656 18.3232 10.4987L19.1469 11.0542L20.5022 10.1402C21.9923 9.13525 24 10.2028 24 12C24 13.7972 21.9923 14.8647 20.5022 13.8599L19.1469 12.9457L18.3232 13.5013C17.9775 13.7344 17.767 13.8775 17.6236 13.9965C17.5737 14.0378 17.5428 14.0678 17.5241 14.0878C17.5128 14.0999 17.5062 14.108 17.5029 14.1125C17.4899 14.1507 17.4871 14.1915 17.4945 14.2312C17.4971 14.2361 17.5024 14.2452 17.512 14.2589C17.5275 14.2813 17.5539 14.3154 17.5972 14.3633C17.722 14.5016 17.9098 14.6734 18.2185 14.9538L21.6241 18.0471C21.9447 18.3383 21.9685 18.8342 21.6774 19.1548C21.3862 19.4753 20.8904 19.4991 20.5698 19.208L17.164 16.1146C16.8795 15.8562 16.6225 15.6239 16.4332 15.4142C16.2386 15.1987 16.0442 14.9323 15.9659 14.583C15.8883 14.2372 15.9143 13.8761 16.0407 13.5449L16.041 13.5442L16.0527 13.5145L16.053 13.5139C16.1828 13.1958 16.406 12.9689 16.6225 12.7894C16.84 12.609 17.1276 12.416 17.4463 12.2011L17.7444 11.9999L17.4463 11.7989C17.1276 11.584 16.84 11.391 16.6225 11.2106C16.399 11.0253 16.1684 10.7894 16.0407 10.4551C15.9143 10.1239 15.8883 9.76283 15.9659 9.41696L15.966 9.41618L15.9734 9.38523L15.9735 9.38445C16.0563 9.05109 16.2447 8.79452 16.4332 8.58577C16.6225 8.37607 16.8795 8.1438 17.164 7.88536L20.5698 4.792L20.5704 4.79148L20.5842 4.77918L20.5849 4.77866ZM22.4318 12C22.4318 11.4591 21.8276 11.1378 21.3791 11.4402L20.549 12L21.3791 12.5598C21.8276 12.8622 22.4318 12.5409 22.4318 12Z" fill="#55644A"/>
<path fill-rule="evenodd" clip-rule="evenodd" d="M2.32264 4.84522C2.60032 4.53954 3.06415 4.50368 3.38458 4.75354L3.41514 4.77866L3.41579 4.77918L3.42964 4.79148L3.43029 4.792L6.83598 7.88536C7.12051 8.14379 7.3775 8.37607 7.56682 8.58577C7.7435 8.78147 7.92018 9.01919 8.0098 9.32282L8.0265 9.38445L8.02663 9.38523L8.03401 9.41631L8.03427 9.41747L8.04101 9.44881L8.04114 9.44946C8.1078 9.77458 8.08347 10.1118 7.97082 10.424L7.97056 10.4245L7.95943 10.4546L7.9593 10.4551C7.83164 10.7894 7.60097 11.0253 7.3775 11.2106C7.16005 11.391 6.87238 11.584 6.5537 11.7989L6.25535 12L6.5537 12.2011C6.87238 12.416 7.16005 12.609 7.3775 12.7894C7.58043 12.9577 7.78935 13.1676 7.92162 13.4552L7.947 13.5139L7.94726 13.5145L7.95904 13.5442L7.95943 13.5455L7.97056 13.5755L7.97082 13.576C8.08723 13.8986 8.10931 14.248 8.03414 14.583C7.95579 14.9323 7.76137 15.1987 7.56682 15.4142C7.3775 15.6239 7.12051 15.8562 6.83598 16.1146L3.43016 19.208L3.42964 19.2085L3.41579 19.2208L3.41514 19.2213C3.09427 19.4983 2.60927 19.4703 2.32264 19.1548C2.03148 18.8342 2.0553 18.3383 2.37586 18.0471L5.78155 14.9538C6.0902 14.6734 6.27799 14.5016 6.40284 14.3633C6.44612 14.3154 6.47246 14.2813 6.48804 14.2589C6.49761 14.2452 6.50273 14.236 6.5054 14.2311C6.51274 14.1915 6.50989 14.1508 6.49698 14.1127C6.49369 14.1083 6.48724 14.1001 6.47574 14.0878C6.45713 14.0678 6.42625 14.0378 6.37643 13.9965C6.23302 13.8775 6.02249 13.7344 5.6768 13.5013L4.85299 12.9457L3.49776 13.8599C2.00775 14.8647 -2.35674e-07 13.7972 0 12C3.57189e-07 10.2028 2.00775 9.13525 3.49776 10.1402L4.85299 11.0542L5.6768 10.4987C6.02249 10.2656 6.23302 10.1225 6.37643 10.0035C6.42629 9.96218 6.45727 9.93219 6.47587 9.91225C6.48741 9.89989 6.49372 9.89152 6.49698 9.88713C6.50987 9.84901 6.51276 9.80835 6.5054 9.76878C6.50271 9.76384 6.49755 9.75473 6.48804 9.74107C6.47246 9.71866 6.4461 9.68461 6.40284 9.6367C6.27799 9.4984 6.0902 9.32656 5.78155 9.04623L2.37586 5.95287L2.37522 5.95235L2.36162 5.93966L2.36097 5.93914C2.05454 5.6463 2.03603 5.16078 2.32264 4.84522ZM2.62086 11.4402C2.17245 11.1378 1.56824 11.4592 1.56824 12C1.56824 12.5409 2.17245 12.8622 2.62086 12.5598L3.45075 12L2.62086 11.4402Z" fill="#55644A"/>
<path fill-rule="evenodd" clip-rule="evenodd" d="M12.0837 0.00142438C13.83 0.0625391 14.8491 2.03102 13.8599 3.49776L12.9457 4.85299L13.5013 5.6768C13.7344 6.02249 13.8775 6.23302 13.9965 6.37643C14.0378 6.42625 14.0678 6.45713 14.0878 6.47574C14.1001 6.48724 14.1083 6.49369 14.1127 6.49698C14.1509 6.50989 14.1915 6.51274 14.2311 6.5054C14.236 6.50273 14.2452 6.49761 14.2589 6.48804C14.2813 6.47246 14.3154 6.44612 14.3633 6.40284C14.5016 6.27799 14.6734 6.0902 14.9538 5.78155L18.0471 2.37586L18.0477 2.37522L18.0603 2.36162L18.0609 2.36097C18.3537 2.05454 18.8392 2.03603 19.1548 2.32264C19.4753 2.6138 19.4991 3.10961 19.208 3.43016L16.1146 6.83598C15.8562 7.12051 15.6239 7.3775 15.4142 7.56682C15.1987 7.76137 14.9323 7.95579 14.583 8.03414C14.248 8.10931 13.8986 8.08723 13.576 7.97082L13.5755 7.97056L13.5455 7.95943L13.5449 7.9593C13.2106 7.83164 12.9747 7.60097 12.7894 7.3775C12.609 7.16005 12.416 6.87238 12.2011 6.5537L11.9999 6.25535L11.7989 6.5537C11.584 6.87238 11.391 7.16005 11.2106 7.3775C11.0311 7.59397 10.8042 7.81719 10.4861 7.947L10.4855 7.94726L10.4558 7.95904L10.4551 7.9593C10.1239 8.08572 9.76283 8.11173 9.41696 8.03414C9.06772 7.95579 8.80126 7.76137 8.58577 7.56682C8.37607 7.3775 8.1438 7.12051 7.88536 6.83598L4.792 3.43016L4.79148 3.42964L4.77918 3.41579L4.77866 3.41514C4.50172 3.09427 4.52969 2.60927 4.84522 2.32264C5.15091 2.04499 5.61603 2.05374 5.91104 2.33313L5.93914 2.36097L5.93966 2.36162L5.95235 2.37522L5.95287 2.37586L9.04623 5.78155C9.32657 6.0902 9.4984 6.27799 9.6367 6.40284C9.68462 6.4461 9.71866 6.47246 9.74107 6.48804C9.75473 6.49755 9.76384 6.50271 9.76878 6.5054C9.80835 6.51276 9.84901 6.50987 9.88713 6.49698C9.89152 6.49372 9.89989 6.48741 9.91225 6.47587C9.93219 6.45726 9.96218 6.42628 10.0035 6.37643C10.1225 6.23302 10.2656 6.02249 10.4987 5.6768L11.0542 4.85299L10.1402 3.49776C9.13525 2.00775 10.2028 5.22397e-08 12 0L12.0837 0.00142438ZM12 1.56824C11.4591 1.56824 11.1378 2.17245 11.4402 2.62086L12 3.45075L12.5598 2.62086C12.8622 2.17245 12.5409 1.56824 12 1.56824Z" fill="#55644A"/>
</svg>
